# xmcd
#
# Track frame offsets:
#	225
#	16215
#	38910
#	56255
#	67972
#	90637
#	109595
#	126855
#	152717
#	158742
#	170085
#	180762
#	191182
#	201822
#	214555
#	224952
#
# Disc length: 3183 seconds
#
# Revision: 2
# Processed by: cddbd v1.4b41PL3 Copyright (c) Steve Scherf et al.
# Submitted via: EZCDDA 4.3.2
#
DISCID=dc0c6c10
DTITLE=Eric Clapton - Eric Clapton and Friends
DYEAR=1900
DGENRE=
TTITLE0=Louise
TTITLE1=Five Long Years
TTITLE2=Early In The Morning
TTITLE3=Pounds And Stomps
TTITLE4=First Time I Met The Blues
TTITLE5=They Call It Stormy Monday Blues
TTITLE6=Big Boss Man
TTITLE7=She's So Respectable
TTITLE8=Choker
TTITLE9=Snake Drive
TTITLE10=West Coast Idea
TTITLE11=Eric's Blues
TTITLE12=Got To Hurry
TTITLE13=Freight Loader
TTITLE14=A Certain Girl
TTITLE15=Draggin' My Tail
EXTD=
EXTT0=
EXTT1=
EXTT2=
EXTT3=
EXTT4=
EXTT5=
EXTT6=
EXTT7=
EXTT8=
EXTT9=
EXTT10=
EXTT11=
EXTT12=
EXTT13=
EXTT14=
EXTT15=
PLAYORDER=
